HIERARCHY
ROOT hip
{
  OFFSET 2.79989 83.2873 9.55183
  CHANNELS 6 Xposition Yposition Zposition Zrotation Xrotation Yrotation
  JOINT abdomen
  {
    OFFSET 0 20.6881 -0.73152
    CHANNELS 3 Zrotation Xrotation Yrotation
    JOINT chest
    {
      OFFSET 0 11.7043 -0.48768
      CHANNELS 3 Zrotation Xrotation Yrotation
      JOINT neck
      {
        OFFSET 0 22.1894 -2.19456
        CHANNELS 3 Zrotation Xrotation Yrotation
        JOINT head
        {
          OFFSET -0.24384 7.07133 1.2192
          CHANNELS 3 Zrotation Xrotation Yrotation
          JOINT leftEye
          {
            OFFSET 4.14528 8.04674 8.04672
            CHANNELS 3 Zrotation Xrotation Yrotation
            End Site
            {
              OFFSET 1 0 0
            }
          }
          JOINT rightEye
          {
            OFFSET -3.6576 8.04674 8.04672
            CHANNELS 3 Zrotation Xrotation Yrotation
            End Site
            {
              OFFSET 1 0 0
            }
          }
        }
      }
      JOINT rCollar
      {
        OFFSET -2.68224 19.2634 -4.8768
        CHANNELS 3 Zrotation Xrotation Yrotation
        JOINT rShldr
        {
          OFFSET -8.77824 -1.95073 1.46304
          CHANNELS 3 Zrotation Xrotation Yrotation
          JOINT rForeArm
          {
            OFFSET -28.1742 -1.7115 0.48768
            CHANNELS 3 Zrotation Xrotation Yrotation
            JOINT rHand
            {
              OFFSET -22.5879 0.773209 7.07136
              CHANNELS 3 Zrotation Xrotation Yrotation
              JOINT rThumb1
              {
                OFFSET -1.2192 -0.487915 3.41376
                CHANNELS 3 Zrotation Xrotation Yrotation
                JOINT rThumb2
                {
                  OFFSET -3.37035 -0.52449 3.41376
                  CHANNELS 3 Zrotation Xrotation Yrotation
                  End Site
                  {
                    OFFSET -1.78271 -1.18214 1.43049
                  }
                }
              }
              JOINT rIndex1
              {
                OFFSET -7.75947 0.938293 5.60832
                CHANNELS 3 Zrotation Xrotation Yrotation
                JOINT rIndex2
                {
                  OFFSET -2.54057 -0.884171 1.56538
                  CHANNELS 3 Zrotation Xrotation Yrotation
                  End Site
                  {
                    OFFSET -1.62519 -0.234802 1.16502
                  }
                }
              }
              JOINT rMid1
              {
                OFFSET -8.24714 1.18213 3.41376
                CHANNELS 3 Zrotation Xrotation Yrotation
                JOINT rMid2
                {
                  OFFSET -3.10165 -0.590103 1.0647
                  CHANNELS 3 Zrotation Xrotation Yrotation
                  End Site
                  {
                    OFFSET -2.48547 -0.328903 0.83742
                  }
                }
              }
              JOINT rRing1
              {
                OFFSET -8.82822 0.546677 1.51678
                CHANNELS 3 Zrotation Xrotation Yrotation
                JOINT rRing2
                {
                  OFFSET -2.60934 -0.819778 -0.0198488
                  CHANNELS 3 Zrotation Xrotation Yrotation
                  End Site
                  {
                    OFFSET -2.33842 -0.294052 0.168128
                  }
                }
              }
              JOINT rPinky1
              {
                OFFSET -8.27202 -0.0477905 -0.4584
                CHANNELS 3 Zrotation Xrotation Yrotation
                JOINT rPinky2
                {
                  OFFSET -1.82734 -0.647385 -0.700984
                  CHANNELS 3 Zrotation Xrotation Yrotation
                  End Site
                  {
                    OFFSET -1.69225 -0.51767 -0.607171
                  }
                }
              }
            }
          }
        }
      }
      JOINT lCollar
      {
        OFFSET 2.68224 19.2634 -4.8768
        CHANNELS 3 Zrotation Xrotation Yrotation
        JOINT lShldr
        {
          OFFSET 8.77824 -1.95073 1.46304
          CHANNELS 3 Zrotation Xrotation Yrotation
          JOINT lForeArm
          {
            OFFSET 28.1742 -1.7115 0.48768
            CHANNELS 3 Zrotation Xrotation Yrotation
            JOINT lHand
            {
              OFFSET 22.5879 0.773209 7.07136
              CHANNELS 3 Zrotation Xrotation Yrotation
              JOINT lThumb1
              {
                OFFSET 1.2192 -0.487915 3.41376
                CHANNELS 3 Zrotation Xrotation Yrotation
                JOINT lThumb2
                {
                  OFFSET 3.37035 -0.52449 3.41376
                  CHANNELS 3 Zrotation Xrotation Yrotation
                  End Site
                  {
                    OFFSET 1.78271 -1.18214 1.43049
                  }
                }
              }
              JOINT lIndex1
              {
                OFFSET 7.75947 0.938293 5.60832
                CHANNELS 3 Zrotation Xrotation Yrotation
                JOINT lIndex2
                {
                  OFFSET 2.54057 -0.884171 1.56538
                  CHANNELS 3 Zrotation Xrotation Yrotation
                  End Site
                  {
                    OFFSET 1.62519 -0.234802 1.16502
                  }
                }
              }
              JOINT lMid1
              {
                OFFSET 8.24714 1.18213 3.41376
                CHANNELS 3 Zrotation Xrotation Yrotation
                JOINT lMid2
                {
                  OFFSET 3.10165 -0.590103 1.0647
                  CHANNELS 3 Zrotation Xrotation Yrotation
                  End Site
                  {
                    OFFSET 2.48547 -0.328903 0.83742
                  }
                }
              }
              JOINT lRing1
              {
                OFFSET 8.82822 0.546677 1.51678
                CHANNELS 3 Zrotation Xrotation Yrotation
                JOINT lRing2
                {
                  OFFSET 2.60934 -0.819778 -0.0198488
                  CHANNELS 3 Zrotation Xrotation Yrotation
                  End Site
                  {
                    OFFSET 2.33842 -0.294052 0.168128
                  }
                }
              }
              JOINT lPinky1
              {
                OFFSET 8.27202 -0.0477905 -0.4584
                CHANNELS 3 Zrotation Xrotation Yrotation
                JOINT lPinky2
                {
                  OFFSET 1.82734 -0.647385 -0.700984
                  CHANNELS 3 Zrotation Xrotation Yrotation
                  End Site
                  {
                    OFFSET 1.69225 -0.51767 -0.607171
                  }
                }
              }
            }
          }
        }
      }
    }
  }
  JOINT rButtock
  {
    OFFSET -8.77824 4.35084 1.2192
    CHANNELS 3 Zrotation Xrotation Yrotation
    JOINT rThigh
    {
      OFFSET 0 -1.70687 -2.19456
      CHANNELS 3 Zrotation Xrotation Yrotation
      JOINT rShin
      {
        OFFSET 0 -36.8199 0.73152
        CHANNELS 3 Zrotation Xrotation Yrotation
        JOINT rFoot
        {
          OFFSET 0.73152 -45.1104 -5.12064
          CHANNELS 3 Zrotation Xrotation Yrotation
          End Site
          {
            OFFSET -1.1221 -3.69964 12.103
          }
        }
      }
    }
  }
  JOINT lButtock
  {
    OFFSET 8.77824 4.35084 1.2192
    CHANNELS 3 Zrotation Xrotation Yrotation
    JOINT lThigh
    {
      OFFSET 0 -1.70687 -2.19456
      CHANNELS 3 Zrotation Xrotation Yrotation
      JOINT lShin
      {
        OFFSET 0 -36.8199 0.73152
        CHANNELS 3 Zrotation Xrotation Yrotation
        JOINT lFoot
        {
          OFFSET -0.73152 -45.1104 -5.12064
          CHANNELS 3 Zrotation Xrotation Yrotation
          End Site
          {
            OFFSET 1.1221 -3.69964 12.103
          }
        }
      }
    }
  }
}
MOTION
Frames:	4
Frame Time:	0.00833333
2.46056 83.6554 7.10675 1.74838 0.00677 -0.0332211 -2.30016 -0.000942048 -0.0623528 -0.634479 0.00830844 -0.109827 1.75807e-014 0 4.72114e-016 5.3178e-014 3.18055e-015 1.29055e-015 -0 0 0 -0 0 0 8.64576e-015 -5.78494e-017 2.98177e-016 1.85708e-013 -9.87711e-016 6.55989e-015 3.13459e-012 -9.84779e-013 7.95139e-014 3.60384e-011 7.47455e-013 9.85972e-013 8.4988e-011 -5.16375e-013 2.31544e-012 1.46759e-010 -8.90555e-013 3.99557e-012 8.49948e-011 -5.1366e-013 2.3059e-012 7.73091 5.47488 0.417314 8.49881e-011 -5.16641e-013 2.31862e-012 2.90554 0.965183 0.102902 8.49942e-011 -5.16443e-013 2.31544e-012 10.2786 0.731801 0.0259123 8.49828e-011 -5.16045e-013 2.3218e-012 2.22167 -0.733487 -0.20892 8.64909e-015 -5.97907e-017 9.93923e-017 1.80555e-013 -1.36043e-015 4.57205e-015 3.15635e-012 9.0288e-013 6.36111e-014 3.60259e-011 -1.15166e-012 1.00187e-012 8.50062e-011 -5.38049e-013 2.31226e-012 1.46817e-010 -9.25541e-013 3.99001e-012 8.49995e-011 -5.39502e-013 2.31226e-012 -7.73091 5.47488 -0.417314 8.50055e-011 -5.37911e-013 2.30908e-012 -2.90554 0.965183 -0.102902 8.49965e-011 -5.38011e-013 2.31226e-012 -10.2786 0.731801 -0.0259123 8.50119e-011 -5.38309e-013 2.29954e-012 -2.22167 -0.733487 0.20892 -2.03217e-016 0 -3.88251e-019 -1.28271 -1.92859 0.00418732 -0.00872932 -2.07863 -0.0717832 -0.462941 3.99877 0.133064 2.03217e-016 0 3.88251e-019 -2.21844 -7.92848 0.228511 -0.00571396 8.7892 -0.144989 0.509464 -0.869093 -0.039911 
2.13563 83.2853 6.78038 1.27044 0.146149 0.364277 -2.83495 1.9024 0.178491 -0.52743 -1.33141 -0.0787173 -3.19357 1.31827 -1.91877 5.02307 -0.472073 -3.12031 -0 0 0 -0 0 0 1.29525e-014 -1.48046e-014 -7.44783e-015 22.3102 5.856 -3.32716 -4.48218 -2.09161 6.94005 0.00262126 1.14544 0.160869 -4.38928e-011 4.15554e-011 1.51215e-011 -7.59695e-011 7.19929e-011 2.67224e-011 -4.38896e-011 4.15591e-011 1.511e-011 7.73091 5.47488 0.417314 -4.38941e-011 4.15564e-011 1.51245e-011 2.90554 0.965183 0.102902 -4.38873e-011 4.15564e-011 1.51223e-011 10.2786 0.731801 0.0259123 -4.38983e-011 4.1558e-011 1.51296e-011 2.22167 -0.733487 -0.20892 1.28888e-014 -1.48011e-014 -7.64428e-015 -20.6378 6.42097 3.27115 5.59762 -2.89516 -8.32722 -0.011295 -2.35857 0.330462 4.58606e-011 5.87364e-012 -4.76631e-011 7.96968e-011 1.08808e-011 -8.25287e-011 4.5854e-011 5.87283e-012 -4.76594e-011 -7.73091 5.47488 -0.417314 4.586e-011 5.87336e-012 -4.76655e-011 -2.90554 0.965183 -0.102902 4.58525e-011 5.87357e-012 -4.76632e-011 -10.2786 0.731801 -0.0259123 4.5866e-011 5.87404e-012 -4.76752e-011 -2.22167 -0.733487 0.20892 -2.03217e-016 0 -3.88251e-019 -1.62176 -1.59712 3.3188 -0.0104723 1.11645 -0.000297431 -0.722999 1.6334 -4.22189 2.03217e-016 0 3.88251e-019 -1.05421 -7.09235 -2.74996 0.000200162 10.4731 -0.16702 0.576405 -2.73961 2.22688 
2.11674 83.2822 6.77661 0.759022 0.292361 0.785095 -3.41451 3.9153 0.435689 -0.415088 -2.74915 -0.0453279 -6.47321 2.71384 -3.95341 10.2795 -0.978004 -6.42494 -0 0 0 -0 0 0 1.68732e-014 -3.10418e-014 -1.60177e-014 46.6508 11.9815 -6.96182 -8.67412 -4.20064 14.3066 -0.00161527 2.33911 0.328731 -1.73906e-010 8.38195e-011 4.20861e-011 -3.00591e-010 1.4522e-010 7.39539e-011 -1.73907e-010 8.38243e-011 4.20724e-011 7.73091 5.47488 0.417314 -1.73909e-010 8.3822e-011 4.20887e-011 2.90554 0.965183 0.102902 -1.73901e-010 8.38218e-011 4.20877e-011 10.2786 0.731801 0.0259123 -1.73912e-010 8.38246e-011 4.2096e-011 2.22167 -0.733487 -0.20892 1.67349e-014 -3.1032e-014 -1.62103e-014 -43.265 13.1398 6.8671 10.6124 -5.75411 -17.2014 0.00646747 -4.85859 0.682649 1.62341e-011 2.28056e-011 -1.05526e-010 2.9086e-011 4.0986e-011 -1.82656e-010 1.62277e-011 2.28056e-011 -1.05518e-010 -7.73091 5.47488 -0.417314 1.62336e-011 2.28049e-011 -1.05527e-010 -2.90554 0.965183 -0.102902 1.62278e-011 2.28054e-011 -1.05526e-010 -10.2786 0.731801 -0.0259123 1.62393e-011 2.28068e-011 -1.05537e-010 -2.22167 -0.733487 0.20892 -2.03217e-016 0 -3.88251e-019 -2.01728 -1.24017 6.82162 -0.0209543 4.49046 0.0753663 -1.38711 -0.846405 -8.82328 2.03217e-016 0 3.88251e-019 0.275642 -6.1944 -5.88816 0.00791123 12.259 -0.190802 0.809048 -4.70893 4.63377 
2.1058 83.2792 6.77231 0.308751 0.424829 1.1593 -3.95273 5.70874 0.663171 -0.308965 -4.01086 -0.0164736 -9.31579 3.93704 -5.76845 14.9157 -1.39943 -9.36343 -0 0 0 -0 0 0 2.15658e-014 -4.42982e-014 -2.29398e-014 69.0416 17.3255 -10.4064 -11.9569 -5.90737 20.9225 -0.0114618 3.43621 0.483378 -3.01654e-010 1.25699e-010 4.07337e-011 -5.21427e-010 2.1776e-010 7.2176e-011 -3.01658e-010 1.25705e-010 4.07182e-011 7.73091 5.47488 0.417314 -3.01659e-010 1.25703e-010 4.07362e-011 2.90554 0.965183 0.102902 -3.0165e-010 1.25702e-010 4.07361e-011 10.2786 0.731801 0.0259123 -3.01661e-010 1.25706e-010 4.07453e-011 2.22167 -0.733487 -0.20892 2.13683e-014 -4.42836e-014 -2.31316e-014 -64.2081 19.0045 10.32 14.3369 -7.95313 -25.2087 0.0482641 -7.07475 0.998146 -3.24306e-011 1.8697e-011 -1.47614e-010 -5.45441e-011 3.44935e-011 -2.55566e-010 -3.24371e-011 1.86975e-011 -1.47603e-010 -7.73091 5.47488 -0.417314 -3.24311e-011 1.86959e-011 -1.47615e-010 -2.90554 0.965183 -0.102902 -3.24355e-011 1.86967e-011 -1.47614e-010 -10.2786 0.731801 -0.0259123 -3.24257e-011 1.86987e-011 -1.47625e-010 -2.22167 -0.733487 0.20892 -2.03217e-016 0 -3.88251e-019 -2.41467 -0.928068 9.94547 -0.0379707 7.50659 0.143812 -2.31386 -3.00582 -12.9441 2.03217e-016 0 3.88251e-019 1.53645 -5.38229 -8.67793 0.0160461 13.8409 -0.212305 1.15559 -6.44164 6.79592 
